<svg width="44" height="37" viewBox="0 0 44 37" fill="none" xmlns="http://www.w3.org/2000/svg">
<path d="M1.6875 31.0625C13.0775 31.0625 24.1117 32.5859 34.5974 35.4401C36.112 35.8523 37.625 34.7262 37.625 33.1565V31.0625M4.8125 1.375V2.9375C4.8125 3.80045 4.11294 4.5 3.25 4.5H1.6875M1.6875 4.5V3.71875C1.6875 2.42433 2.73683 1.375 4.03125 1.375H39.1875M1.6875 4.5V23.25M39.1875 1.375V2.9375C39.1875 3.80045 39.8871 4.5 40.75 4.5H42.3125M39.1875 1.375H39.9687C41.2632 1.375 42.3125 2.42433 42.3125 3.71875V24.0313C42.3125 25.3257 41.2632 26.375 39.9687 26.375H39.1875M42.3125 23.25H40.75C39.8871 23.25 39.1875 23.9496 39.1875 24.8125V26.375M39.1875 26.375H4.8125M4.8125 26.375H4.03125C2.73683 26.375 1.6875 25.3257 1.6875 24.0313V23.25M4.8125 26.375V24.8125C4.8125 23.9496 4.11294 23.25 3.25 23.25H1.6875M28.25 13.875C28.25 17.3268 25.4518 20.125 22 20.125C18.5482 20.125 15.75 17.3268 15.75 13.875C15.75 10.4232 18.5482 7.625 22 7.625C25.4518 7.625 28.25 10.4232 28.25 13.875ZM34.5 13.875H34.5156V13.8906H34.5V13.875ZM9.5 13.875H9.51563V13.8906H9.5V13.875Z" stroke="#0F172A" stroke-width="1.5" stroke-linecap="round" stroke-linejoin="round"/>
</svg>
