<svg width="26" height="24" viewBox="0 0 26 24" fill="none" xmlns="http://www.w3.org/2000/svg">
<path d="M12.5562 23.1383L12.548 23.1339L12.5197 23.1186C12.4956 23.1055 12.4611 23.0866 12.417 23.0619C12.3286 23.0127 12.2015 22.9405 12.0412 22.8462C11.7206 22.6576 11.2665 22.3799 10.7232 22.0187C9.63843 21.2976 8.18902 20.2376 6.73575 18.8829C3.85976 16.2019 0.8125 12.2189 0.8125 7.3125C0.8125 3.65243 3.892 0.75 7.60938 0.75C9.79548 0.75 11.7529 1.74886 13 3.3145C14.2471 1.74886 16.2045 0.75 18.3906 0.75C22.108 0.75 25.1875 3.65243 25.1875 7.3125C25.1875 12.2189 22.1402 16.2019 19.2643 18.8829C17.811 20.2376 16.3616 21.2976 15.2768 22.0187C14.7335 22.3799 14.2794 22.6576 13.9588 22.8462C13.7985 22.9405 13.6714 23.0127 13.583 23.0619C13.5389 23.0866 13.5044 23.1055 13.4803 23.1186L13.452 23.1339L13.4438 23.1383L13.4403 23.1402C13.1654 23.2862 12.8346 23.2862 12.5597 23.1402L12.5562 23.1383Z" fill="#F58634"/>
</svg>
