<svg width="40" height="36" viewBox="0 0 40 36" fill="none" xmlns="http://www.w3.org/2000/svg">
<path d="M38.75 18C38.75 15.4112 36.6513 13.3125 34.0625 13.3125H26.25C26.25 16.7643 23.4518 19.5625 20 19.5625C16.5482 19.5625 13.75 16.7643 13.75 13.3125H5.9375C3.34867 13.3125 1.25 15.4112 1.25 18M38.75 18V30.5C38.75 33.0888 36.6513 35.1875 34.0625 35.1875H5.9375C3.34867 35.1875 1.25 33.0888 1.25 30.5V18M38.75 18V11.75M1.25 18V11.75M38.75 11.75C38.75 9.16117 36.6513 7.0625 34.0625 7.0625H5.9375C3.34867 7.0625 1.25 9.16117 1.25 11.75M38.75 11.75V5.5C38.75 2.91117 36.6513 0.8125 34.0625 0.8125H5.9375C3.34867 0.8125 1.25 2.91117 1.25 5.5V11.75" stroke="#0F172A" stroke-opacity="0.7" stroke-width="1.5" stroke-linecap="round" stroke-linejoin="round"/>
</svg>
