<svg width="44" height="44" viewBox="0 0 44 44" fill="none" xmlns="http://www.w3.org/2000/svg">
<path d="M29.4801 26.9367C29.6975 27.86 29.8125 28.8228 29.8125 29.8125C29.8125 36.7161 24.2161 42.3125 17.3125 42.3125V32.3132M29.4801 26.9367C37.2592 21.2523 42.3125 12.0599 42.3125 1.6875C31.9406 1.68794 22.7489 6.74137 17.065 14.5203M29.4801 26.9367C25.9206 29.5377 21.7904 31.4042 17.3125 32.3132M17.065 14.5203C16.1412 14.3027 15.1778 14.1875 14.1875 14.1875C7.28394 14.1875 1.6875 19.7839 1.6875 26.6875H11.689M17.065 14.5203C14.4643 18.0797 12.5979 22.2098 11.689 26.6875M17.3125 32.3132C17.0971 32.3569 16.8808 32.3984 16.6638 32.4377C14.7744 30.9395 13.0623 29.2275 11.5642 27.338C11.6035 27.1204 11.6452 26.9035 11.689 26.6875M7.02481 31.6682C4.73361 33.3774 3.25 36.1092 3.25 39.1875C3.25 39.681 3.28813 40.1655 3.36159 40.6384C3.83447 40.7119 4.31903 40.75 4.8125 40.75C7.89079 40.75 10.6226 39.2664 12.3318 36.9752M31.375 15.75C31.375 17.4759 29.9759 18.875 28.25 18.875C26.5241 18.875 25.125 17.4759 25.125 15.75C25.125 14.0241 26.5241 12.625 28.25 12.625C29.9759 12.625 31.375 14.0241 31.375 15.75Z" stroke="#0F172A" stroke-width="1.5" stroke-linecap="round" stroke-linejoin="round"/>
</svg>
