<svg width="52" height="52" viewBox="0 0 52 52" fill="none" xmlns="http://www.w3.org/2000/svg">
<path d="M21.5011 29.8906L23.0982 32.4459C23.6391 33.3113 24.5876 33.8371 25.6081 33.8371H28.2468C29.2673 33.8371 30.2159 33.3113 30.7567 32.4459L32.3538 29.8906M14.3115 22.9844H20.4104C21.4 22.9844 22.3241 23.479 22.8731 24.3024L23.089 24.6262C23.6379 25.4496 24.5621 25.9442 25.5517 25.9442H28.3032C29.2929 25.9442 30.217 25.4496 30.7659 24.6262L30.9818 24.3024C31.5308 23.479 32.4549 22.9844 33.4445 22.9844H39.5434M14.3115 22.9844C14.1739 23.3301 14.1016 23.7013 14.1016 24.0793V26.9308C14.1016 28.5655 15.4267 29.8906 17.0614 29.8906H36.7935C38.4282 29.8906 39.7533 28.5655 39.7533 26.9308V24.0793C39.7533 23.7013 39.681 23.3301 39.5434 22.9844M14.3115 22.9844C14.4312 22.6838 14.6003 22.4026 14.8141 22.1531L19.1353 17.1117C19.6976 16.4557 20.5185 16.0781 21.3825 16.0781H32.4724C33.3364 16.0781 34.1573 16.4557 34.7196 17.1117L39.0408 22.1531C39.2546 22.4026 39.4237 22.6838 39.5434 22.9844M17.0614 37.7835H36.7935C38.4282 37.7835 39.7533 36.4583 39.7533 34.8237V31.3705C39.7533 30.5532 39.0908 29.8906 38.2734 29.8906H15.5815C14.7641 29.8906 14.1016 30.5532 14.1016 31.3705V34.8237C14.1016 36.4583 15.4267 37.7835 17.0614 37.7835Z" stroke="#FFAE73" stroke-width="1.5" stroke-linecap="round" stroke-linejoin="round"/>
<circle cx="26" cy="26" r="23.5" stroke="#F58634" stroke-width="5"/>
</svg>
