<svg width="44" height="44" viewBox="0 0 44 44" fill="none" xmlns="http://www.w3.org/2000/svg">
<path d="M29.8125 7.9375C33.2643 7.9375 36.0625 10.7357 36.0625 14.1875M42.3125 14.1875C42.3125 21.0911 36.7161 26.6875 29.8125 26.6875C29.0818 26.6875 28.3657 26.6248 27.6694 26.5045C26.4964 26.3018 25.2542 26.5583 24.4125 27.4L18.875 32.9375H14.1875V37.625H9.5V42.3125H1.6875V36.4416C1.6875 35.1984 2.18136 34.0061 3.06044 33.1271L16.6 19.5875C17.4417 18.7458 17.6982 17.5036 17.4955 16.3306C17.3752 15.6343 17.3125 14.9182 17.3125 14.1875C17.3125 7.28394 22.9089 1.6875 29.8125 1.6875C36.7161 1.6875 42.3125 7.28394 42.3125 14.1875Z" stroke="#0F172A" stroke-width="1.5" stroke-linecap="round" stroke-linejoin="round"/>
</svg>
